<?xml version="1.0" encoding="utf-8"?>
<!-- Generator: Adobe Illustrator 24.0.2, SVG Export Plug-In . SVG Version: 6.00 Build 0)  -->
<svg version="1.1" id="Quote_Rocket" xmlns="http://www.w3.org/2000/svg" xmlns:xlink="http://www.w3.org/1999/xlink" x="0px"
	 y="0px" viewBox="0 0 610 60.7" style="enable-background:new 0 0 610 60.7;" xml:space="preserve">
<style type="text/css">
	.st0{fill:#0090FF;}
	.st1{fill:#002E6A;}
</style>
<g>
	<path class="st0" d="M169.4,48.2l5.5,4.8l-4.3,5.2l-5.8-5.1c-4.7,3.7-10.4,6-16.7,6c-14.6,0-27-12.3-27-26.9s12.4-26.8,27-26.8
		c14.6,0,26.8,12.2,26.8,26.8C174.9,38,172.9,43.6,169.4,48.2z M159.1,48.2l-7.4-6.4l4.3-5.2l7.7,6.6c2.1-3.2,3.4-7.1,3.4-11.2
		c0-10.8-8.7-19.8-19-19.8s-19.1,9.1-19.1,19.8c0,10.8,8.8,19.9,19.1,19.9C152.2,51.9,156,50.4,159.1,48.2z M218.4,19v39h-7.4v-5.7
		c-2.4,3.8-7.1,6.6-12.4,6.6c-8.6,0-14.7-6.3-14.7-15.1V19h7.3v23.6c0,5.8,3.7,9.9,9,9.9c5.5,0,10.1-3.5,10.8-8.2V19H218.4z
		 M227.2,38.4c0-11.1,9.4-20.4,20.6-20.4c11.1,0,20.5,9.3,20.5,20.4s-9.4,20.5-20.5,20.5C236.6,58.9,227.2,49.6,227.2,38.4z
		 M260.8,38.4c0-7.6-6-13.9-13-13.9c-7.1,0-13.1,6.3-13.1,13.9c0,7.7,6,14,13.1,14C254.8,52.4,260.8,46.1,260.8,38.4z M298,56.1
		c-2.1,1.8-5,2.8-7.8,2.8c-6,0-10.2-4.3-10.2-10.7v-23h-6V19h5.9V8.2h7.3V19h9.2v6.3h-9.2v22.4c0,2.7,1.9,4.7,4,4.7
		c1.7,0,3.2-0.6,4-1.4L298,56.1z M334.7,48l4.7,4.9c-3.5,3.7-10.2,6-15.8,6c-10.9,0-20.1-8.5-20.1-20.6c0-11.7,8.7-20.3,19.4-20.3
		c11.9,0,18.8,9.1,18.8,23.1H311c0.9,6.5,5.7,11.2,12.4,11.2C327.6,52.3,332.3,50.4,334.7,48z M311.1,35.1h23.4
		c-0.8-6-4.6-10.4-11.3-10.4C317.2,24.7,312.4,28.8,311.1,35.1z"/>
	<path class="st1" d="M388.5,38l11.6,19.2h-13.2l-10.9-18h-9l-3.8,18h-11.9l11.6-55.4h24.4c10.5,0,17.7,6.4,17.7,15.7
		C405,27.2,398.1,35,388.5,38z M369.2,28.4h11.9c6.2,0,11.9-4.9,11.9-10c0-3.4-3.1-5.7-8.1-5.7h-12.3L369.2,28.4z M405.5,39.8
		c0-13.9,13-25.2,26.9-25.2c10.9,0,19,8.3,19,18.4c0,13.8-13.1,25.2-27,25.2C413.6,58.2,405.5,50,405.5,39.8z M440.3,33.3
		c0-5-3.8-8.8-8.9-8.8c-7.9,0-14.9,7.2-14.9,15c0,5,3.8,8.8,8.8,8.8C433.2,48.3,440.3,40.9,440.3,33.3z M453.5,39.8
		c0-13.8,13-25.2,27-25.2c6.7,0,12.1,3.1,15.2,7.4l-8.6,6c-1.6-2.2-4.8-3.5-7.6-3.5c-7.8,0-14.8,7.3-14.8,15c0,5,3.8,8.8,8.6,8.8
		c3.5,0,7.3-1.8,10-4.3l6.9,7.2c-5.1,4.6-11.1,7-17.9,7C461.5,58.2,453.5,50,453.5,39.8z M522,34l11.1,23.3H520l-7-15.6l-6.4,5.6
		l-2.1,10.1h-11.8L504.3,1h11.8l-6.7,32.5l19-17.9h13.8L522,34z M548.4,40.2v0.4c0,5,2.6,7.1,7.6,7.1c3.9,0,8.2-1.6,11.3-4.1
		l6.4,8.4c-4.4,3.8-11.2,6.1-18,6.1c-11.2,0-18.3-7.1-18.3-17.5c0-14.5,11.8-26.2,25.7-26.2c9.2,0,15.7,4.7,15.7,11.4
		c0,9.3-7.6,14.6-20.4,14.3L548.4,40.2L548.4,40.2z M550.7,31.7h9.3c4.6,0,7.2-1.3,7.2-3.6c0-1.9-2-3.2-4.7-3.2
		C557.3,24.9,553.1,27.6,550.7,31.7z M598.6,25.1c-4,19.1-4.1,19.5-4.1,20.5c0,1.9,0.9,2.8,2.5,2.8c1.9,0,3.8-0.9,4.8-1.8l1.7,8.4
		c-2.8,2.1-6.5,3.3-10,3.3c-6.4,0-10.7-4.2-10.7-10.3c0-2.1,0.4-3.8,4.4-22.9h-5.7l2.1-9.5h5.7l2.4-11.5h11.4l-2.4,11.5h9l-2,9.5
		H598.6L598.6,25.1z"/>
	<path class="st1" d="M99.4,28.4H49.8c-1.8,0-3.2-1.4-3.2-3.2l0,0c0-1.8,1.4-3.2,3.2-3.2h49.6c1.8,0,3.2,1.4,3.2,3.2l0,0
		C102.5,26.9,101.2,28.4,99.4,28.4z M99.9,42.6H32.7c-1.8,0-3.2-1.4-3.2-3.2l0,0c0-1.8,1.4-3.2,3.2-3.2h67.1c1.8,0,3.2,1.4,3.2,3.2
		l0,0C103,41.2,101.7,42.6,99.9,42.6z M19.8,43.3H3.8c-1.8,0-3.2-1.4-3.2-3.2l0,0c0-1.8,1.4-3.2,3.2-3.2h15.9c1.8,0,3.2,1.4,3.2,3.2
		l0,0C23,41.8,21.5,43.3,19.8,43.3z M52,57H36.1c-1.8,0-3.2-1.4-3.2-3.2l0,0c0-1.8,1.4-3.2,3.2-3.2H52c1.8,0,3.2,1.4,3.2,3.2l0,0
		C55.3,55.7,53.8,57,52,57z M100.7,57h-34c-1.8,0-3.2-1.4-3.2-3.2l0,0c0-1.8,1.4-3.2,3.2-3.2h34c1.8,0,3.2,1.4,3.2,3.2l0,0
		C103.9,55.7,102.4,57,100.7,57z"/>
</g>
</svg>
